<?xml version="1.0" encoding="UTF-8"?>
<svg xmlns="http://www.w3.org/2000/svg" width="800" height="600" viewBox="0 0 800 600" role="img" aria-labelledby="title desc">
  <title id="title">Sunset</title>
  <desc id="desc">A simple sunset over the ocean with a sun dipping below the horizon.</desc>

  <defs>
    <!-- Sky gradient: deep dusk to warm horizon -->
    <linearGradient id="skyGrad" x1="0" y1="0" x2="0" y2="1">
      <stop offset="0%" stop-color="#25164b"/>
      <stop offset="55%" stop-color="#ff6a00"/>
      <stop offset="100%" stop-color="#ffd194"/>
    </linearGradient>

    <!-- Sea gradient: lighter near horizon, darker below -->
    <linearGradient id="seaGrad" x1="0" y1="0" x2="0" y2="1">
      <stop offset="0%" stop-color="#2e8bc0"/>
      <stop offset="100%" stop-color="#0d1b2a"/>
    </linearGradient>

    <!-- Sun glow -->
    <radialGradient id="sunGlow" cx="50%" cy="50%" r="50%">
      <stop offset="0%" stop-color="#fff9c4"/>
      <stop offset="60%" stop-color="#ffcc80"/>
      <stop offset="100%" stop-color="#ff9800"/>
    </radialGradient>

    <!-- Reflection gradient (soft, fading) -->
    <linearGradient id="reflectGrad" x1="0" y1="0" x2="0" y2="1">
      <stop offset="0%" stop-color="#ffd180" stop-opacity="0.55"/>
      <stop offset="100%" stop-color="#ffd180" stop-opacity="0"/>
    </linearGradient>

    <filter id="softBlur" x="-20%" y="-20%" width="140%" height="140%">
      <feGaussianBlur stdDeviation="2"/>
    </filter>
  </defs>

  <!-- Sky -->
  <rect x="0" y="0" width="800" height="600" fill="url(#skyGrad)"/>

  <!-- Sun (partially below horizon at y=320) -->
  <circle cx="400" cy="320" r="120" fill="url(#sunGlow)"/>

  <!-- Subtle sun aura -->
  <circle cx="400" cy="320" r="150" fill="#ffb74d" opacity="0.15" filter="url(#softBlur)"/>

  <!-- Sea -->
  <rect x="0" y="320" width="800" height="280" fill="url(#seaGrad)"/>

  <!-- Sun reflection on water (stacked, blurred ripples) -->
  <g filter="url(#softBlur)">
    <ellipse cx="400" cy="340" rx="110" ry="10" fill="url(#reflectGrad)"/>
    <ellipse cx="400" cy="365" rx="95" ry="8" fill="url(#reflectGrad)" opacity="0.85"/>
    <ellipse cx="400" cy="390" rx="80" ry="7" fill="url(#reflectGrad)" opacity="0.7"/>
    <ellipse cx="400" cy="415" rx="65" ry="6" fill="url(#reflectGrad)" opacity="0.55"/>
    <ellipse cx="400" cy="440" rx="50" ry="5" fill="url(#reflectGrad)" opacity="0.4"/>
    <ellipse cx="400" cy="465" rx="35" ry="4" fill="url(#reflectGrad)" opacity="0.3"/>
  </g>

  <!-- Gentle clouds -->
  <g fill="#ffffff" opacity="0.8">
    <g transform="translate(130,120)">
      <circle cx="0" cy="8" r="18"/>
      <circle cx="18" cy="0" r="22"/>
      <circle cx="38" cy="10" r="16"/>
      <circle cx="58" cy="6" r="12"/>
    </g>
    <g transform="translate(590,160) scale(0.9)">
      <circle cx="0" cy="8" r="16"/>
      <circle cx="16" cy="0" r="20"/>
      <circle cx="34" cy="10" r="14"/>
      <circle cx="50" cy="6" r="10"/>
    </g>
  </g>

  <!-- Horizon shimmer lines -->
  <g stroke="#ffd180" stroke-linecap="round" opacity="0.35">
    <line x1="320" y1="330" x2="480" y2="330" stroke-width="2"/>
    <line x1="340" y1="345" x2="460" y2="345" stroke-width="1.6"/>
    <line x1="360" y1="358" x2="440" y2="358" stroke-width="1.2"/>
  </g>
</svg>


